HIERARCHY
ROOT Hips
{
	OFFSET 14.305135 82.211266 -3.793973
	CHANNELS 6 Xposition Yposition Zposition Xrotation Yrotation Zrotation
	JOINT Chest
	{
		OFFSET -0.109982 13.634331 0.497046
		CHANNELS 3 Xrotation Yrotation Zrotation
		JOINT Chest2
		{
			OFFSET -7.725455 19.539009 4.196554
			CHANNELS 3 Xrotation Yrotation Zrotation
			JOINT Chest3
			{
				OFFSET -4.368665 14.162788 1.774842
				CHANNELS 3 Xrotation Yrotation Zrotation
				JOINT Neck
				{
					OFFSET -4.079538 16.495239 3.143321
					CHANNELS 3 Xrotation Yrotation Zrotation
					JOINT Head
					{
						OFFSET -5.162426 9.091736 0.719285
						CHANNELS 3 Xrotation Yrotation Zrotation
						End Site
						{
							OFFSET -5.100909 9.127670 0.702954
						}
					}
				}
				JOINT LeftCollar
				{
					OFFSET -3.284260 11.664352 7.413554
					CHANNELS 3 Xrotation Yrotation Zrotation
					JOINT LeftUpArm
					{
						OFFSET 14.381813 -2.891312 9.659357
						CHANNELS 3 Xrotation Yrotation Zrotation
						JOINT LeftLowArm
						{
							OFFSET 9.414685 -32.086929 4.639091
							CHANNELS 3 Xrotation Yrotation Zrotation
							JOINT LeftHand
							{
								OFFSET -2.276762 -29.662453 3.987835
								CHANNELS 3 Xrotation Yrotation Zrotation
								End Site
								{
									OFFSET -0.497595 -6.482903 0.871567
								}
							}
						}
					}
				}
				JOINT RightCollar
				{
					OFFSET -7.695208 11.938583 0.250633
					CHANNELS 3 Xrotation Yrotation Zrotation
					JOINT RightUpArm
					{
						OFFSET -0.319857 -3.348297 -17.238995
						CHANNELS 3 Xrotation Yrotation Zrotation
						JOINT RightLowArm
						{
							OFFSET 3.495160 -31.534637 -11.536282
							CHANNELS 3 Xrotation Yrotation Zrotation
							JOINT RightHand
							{
								OFFSET -4.239747 -29.628792 -2.261477
								CHANNELS 3 Xrotation Yrotation Zrotation
								End Site
								{
									OFFSET -0.926640 -6.475670 -0.494265
								}
							}
						}
					}
				}
			}
		}
	}
	JOINT LeftUpLeg
	{
		OFFSET 4.916314 -0.278717 8.727618
		CHANNELS 3 Xrotation Yrotation Zrotation
		JOINT LeftLowLeg
		{
			OFFSET -33.333611 -19.512733 27.424665
			CHANNELS 3 Xrotation Yrotation Zrotation
			JOINT LeftFoot
			{
				OFFSET 20.326534 -30.292225 -25.880135
				CHANNELS 3 Xrotation Yrotation Zrotation
				JOINT LeftToe
				{
					OFFSET -6.757626 -22.230665 4.437552
					CHANNELS 3 Xrotation Yrotation Zrotation
					End Site
					{
						OFFSET -15.562225 -12.114210 13.062234
					}
				}
			}
		}
	}
	JOINT RightUpLeg
	{
		OFFSET -4.916315 0.278519 -8.727629
		CHANNELS 3 Xrotation Yrotation Zrotation
		JOINT RightLowLeg
		{
			OFFSET -25.570522 -39.807476 2.350664
			CHANNELS 3 Xrotation Yrotation Zrotation
			JOINT RightFoot
			{
				OFFSET 40.857994 -5.237000 -17.429272
				CHANNELS 3 Xrotation Yrotation Zrotation
				JOINT RightToe
				{
					OFFSET 22.554726 -6.462975 -3.011885
					CHANNELS 3 Xrotation Yrotation Zrotation
					End Site
					{
						OFFSET 13.772686 -19.215519 0.795568
					}
				}
			}
		}
	}
}
MOTION
Frames: 13
Frame Time: 0.033333
0.789153 104.911263 -1.111720 6.342900 59.278747 1.129031 -13.071289 3.514491 -20.870070 0.889954 2.343217 -1.423466 2.351382 -0.349549 6.893543 0.671307 10.937383 -11.949052 0.000001 0.000002 -0.000001 1.090149 8.126236 -2.855616 5.806824 3.334354 0.354622 -0.133152 2.148038 -1.816721 0.000000 -0.000000 -0.000002 0.677878 -4.416792 -2.285931 -4.109119 1.964109 1.324544 -9.453003 -3.158893 5.450878 0.000003 -0.000001 -0.000001 32.841428 18.443532 48.622266 -43.559559 61.272746 -54.557355 28.359007 -30.192127 -16.849552 -0.000003 0.000000 0.000000 5.590175 -0.141617 30.368937 -17.565809 16.495271 -99.908134 -10.347623 3.116597 -46.014038 -0.000000 0.000000 0.000001 
0.794321 104.910629 -1.110062 6.554868 59.431300 1.051602 -12.712228 3.309315 -20.184983 -0.145581 2.399873 -3.303407 3.154003 -0.579843 8.170341 0.666406 11.033920 -12.189408 0.000001 -0.000000 0.000000 1.086508 8.301953 -2.770033 5.803992 2.742890 -0.245607 -0.220800 2.041369 -1.600529 -0.000001 0.000003 -0.000001 0.549148 -4.100653 -2.016705 -3.966753 2.136398 1.283731 -9.526545 -2.823609 4.995383 0.000001 0.000002 0.000001 32.757922 18.375384 48.478364 -43.611103 61.204922 -54.409062 28.202514 -30.296520 -17.231433 -0.000003 -0.000001 0.000002 5.555605 -0.165456 30.265593 -17.687338 16.441923 -99.803312 -10.177196 3.236911 -46.226119 0.000002 0.000001 0.000001 
0.807443 104.909782 -1.106760 6.515069 59.361994 0.850760 -12.322963 3.135973 -19.513985 -0.862045 2.472029 -4.637614 3.513653 -0.690068 9.029088 0.809826 10.963788 -11.881461 0.000000 0.000000 0.000004 0.904314 8.122781 -2.737481 5.933875 2.973268 -0.327860 0.038020 2.275944 -1.325574 -0.000001 0.000005 -0.000004 0.527387 -3.567805 -1.987904 -4.085809 2.047609 1.182674 -9.307840 -2.981800 5.030014 -0.000001 -0.000003 -0.000003 32.754425 18.398578 48.527289 -43.810186 61.133786 -54.073986 27.896618 -29.979176 -17.230443 -0.000001 0.000000 0.000000 5.524150 -0.144193 30.371556 -17.654468 16.411725 -99.740242 -10.360411 3.248752 -46.450809 -0.000001 0.000001 0.000001 
0.828774 104.919090 -1.102661 6.528529 59.222692 0.563738 -12.079134 2.955394 -18.876018 -1.255371 2.472457 -5.312793 3.547189 -0.293474 9.429503 0.694140 10.638862 -11.642858 0.000001 -0.000000 0.000002 1.165238 7.500222 -2.616523 6.060178 2.667368 -0.410521 -0.341234 1.903398 -1.171077 0.000001 -0.000000 -0.000002 0.589955 -3.490470 -1.799642 -4.210782 2.366695 1.252062 -9.040643 -2.538938 4.775312 0.000002 -0.000004 -0.000002 32.674204 18.532141 48.667205 -43.764919 61.047206 -54.076206 27.947408 -30.046637 -17.268434 -0.000004 0.000003 0.000003 5.464843 -0.143652 30.481031 -17.628768 16.484206 -99.883737 -10.323988 3.224895 -46.067703 0.000001 0.000002 0.000004 
0.855521 104.929581 -1.104828 7.092146 59.462015 0.443182 -12.462554 3.126720 -19.557009 -0.588460 2.352031 -4.026175 3.116392 -0.456585 8.542390 0.695186 10.453138 -11.395912 0.000001 0.000001 0.000004 0.980395 7.503621 -2.503532 6.122133 2.639384 -0.480496 -0.130362 1.833571 -1.427265 -0.000002 0.000002 -0.000001 0.550765 -3.013499 -1.659539 -4.332423 2.426147 1.221702 -8.851866 -2.323904 4.278262 0.000001 0.000001 -0.000001 32.529876 18.359028 48.371673 -43.859455 61.023622 -53.919501 28.000948 -30.172378 -17.359814 -0.000002 -0.000003 0.000000 5.106339 -0.147932 29.868885 -17.603670 16.385888 -99.637597 -10.073779 3.296303 -46.211438 -0.000001 0.000002 0.000004 
0.897573 104.944313 -1.109046 7.528599 59.139411 0.286217 -12.532791 3.162587 -19.637304 -0.360729 2.318709 -3.610389 2.872298 -0.329422 8.282985 0.616472 10.271303 -11.373100 0.000000 0.000001 0.000002 0.957801 7.695273 -2.570960 6.090648 2.484508 -0.729186 0.026263 2.015721 -1.186190 -0.000000 -0.000002 -0.000002 0.426085 -3.267361 -1.644314 -4.476618 2.704946 0.933093 -8.839775 -2.188501 3.967778 -0.000000 -0.000003 -0.000002 32.489615 18.315248 48.236777 -43.597084 61.055785 -54.177078 27.749092 -29.915928 -17.330896 0.000000 0.000003 0.000000 4.934478 -0.170762 29.397182 -17.560273 16.225777 -99.131132 -10.400490 3.294513 -46.267111 -0.000001 -0.000000 -0.000002 
0.951748 104.964455 -1.109487 7.850300 59.124412 -0.095410 -12.593676 3.141315 -19.535871 -0.518882 2.218268 -3.796352 2.933540 -0.389393 8.399125 0.701297 10.174131 -11.261753 0.000001 0.000003 0.000004 1.038389 7.561736 -2.589110 6.113834 2.484068 -0.728552 0.034741 1.781793 -1.322429 -0.000001 0.000000 0.000001 0.419413 -2.831432 -1.523603 -4.592533 2.803015 0.836785 -8.451499 -1.950372 4.083547 -0.000001 0.000002 0.000001 32.430476 18.404667 48.209982 -43.515122 61.047951 -54.350073 27.518952 -29.751167 -17.500010 -0.000004 0.000002 0.000001 4.861683 -0.203181 29.365247 -17.563620 16.268865 -99.175788 -10.842632 3.231919 -45.967685 0.000000 0.000002 -0.000003 
1.012917 104.977562 -1.104117 8.318622 59.387969 -0.343804 -12.649974 3.160839 -19.598512 -0.784615 2.108897 -4.021940 3.311171 -0.757722 8.539945 0.688947 10.116199 -11.037274 0.000001 0.000001 0.000002 0.858576 7.521871 -2.522438 6.124474 2.242374 -0.904418 0.220067 1.645056 -1.578996 -0.000001 -0.000000 -0.000001 0.565127 -3.029379 -1.644772 -4.670445 2.802754 0.954973 -8.647888 -1.795504 3.947272 -0.000001 -0.000001 -0.000001 32.379724 18.288421 48.121736 -43.568298 61.144140 -54.344209 27.885222 -29.965034 -17.197791 -0.000003 -0.000001 0.000000 4.585666 -0.143531 28.956327 -17.443226 16.171258 -98.899486 -10.827825 3.203339 -46.180104 0.000001 0.000002 0.000001 
1.091523 104.999771 -1.094637 8.524323 59.174198 -0.622020 -12.399940 3.104038 -19.397462 -1.014526 2.059462 -4.323340 3.290938 -0.840937 8.756083 0.879940 10.016356 -10.737360 0.000000 0.000002 0.000004 0.293518 7.896170 -2.229266 6.483208 2.444927 -0.905157 0.816558 1.615013 -1.021940 0.000001 0.000003 -0.000002 0.669138 -3.072821 -1.652944 -4.870585 2.732645 1.055549 -8.259930 -1.607532 3.830828 -0.000000 -0.000003 -0.000003 32.358779 18.497114 48.350144 -43.121740 61.172185 -54.709074 27.456643 -29.711217 -17.433803 -0.000003 0.000002 0.000001 4.358376 -0.167639 28.696842 -17.237825 15.881655 -98.635704 -11.275862 3.158783 -45.874986 0.000000 0.000000 -0.000001 
1.188571 105.021622 -1.087738 8.662183 59.079244 -1.152171 -12.205107 3.015666 -19.025746 -1.498573 1.735254 -4.636085 3.799991 -1.068877 8.959197 1.004696 9.768204 -9.941293 0.000001 0.000000 0.000002 0.108963 7.886726 -2.219637 6.656898 3.122192 -0.331502 0.665299 1.490971 -1.817232 0.000000 0.000002 -0.000001 0.656834 -3.144380 -1.682898 -4.791034 2.516104 1.036816 -8.364058 -1.598904 3.850061 0.000003 -0.000004 -0.000001 32.206056 18.615530 48.508314 -42.905452 60.954930 -54.736989 27.265963 -29.237806 -17.147740 -0.000002 0.000002 -0.000003 3.962039 -0.160457 28.431709 -16.777815 15.721062 -98.166108 -11.328718 3.049918 -46.302993 -0.000000 -0.000001 -0.000004 
1.293678 105.047050 -1.077992 8.853608 59.087017 -1.536778 -12.107729 2.960461 -18.732368 -1.616543 1.600085 -4.661492 3.947907 -1.133897 9.006712 0.956373 9.348480 -9.586404 0.000001 0.000003 0.000004 -0.006565 7.456596 -2.164898 6.703568 3.173864 -0.570824 0.669619 1.528849 -2.134531 0.000002 0.000002 -0.000001 0.617459 -3.409243 -1.707324 -4.767108 2.369880 0.921436 -8.403826 -1.458719 3.565696 0.000001 0.000004 -0.000001 32.153259 18.629288 48.413194 -43.352450 60.662551 -53.919822 27.102928 -29.215444 -17.445801 -0.000003 -0.000004 -0.000003 3.441289 -0.204109 27.780106 -16.203717 15.211248 -96.901396 -11.847125 3.106220 -47.111001 0.000003 0.000000 0.000004 
1.420903 105.076546 -1.064991 9.334119 58.838309 -1.991148 -12.077775 2.956796 -18.772367 -1.938208 1.385139 -4.716865 4.163167 -0.969246 9.140714 0.652681 8.808124 -8.856528 0.000001 -0.000002 0.000000 -0.081660 6.979555 -1.921599 6.799633 2.491659 -1.305671 0.506517 1.601396 -1.653458 0.000001 0.000000 0.000001 0.715128 -3.769063 -1.672590 -4.925867 2.317247 1.223205 -8.159081 -1.337567 2.934867 0.000001 -0.000001 -0.000001 32.112134 18.585061 48.536410 -42.970899 60.863788 -54.465612 26.797443 -28.863334 -17.217541 -0.000001 0.000001 -0.000001 3.181102 -0.124656 27.369459 -16.057420 15.059512 -96.478020 -12.578821 2.979639 -47.216469 0.000002 0.000000 0.000004 
1.566916 105.107765 -1.051690 9.490159 58.216264 -2.298832 -12.010265 2.993174 -18.874427 -1.822640 1.296594 -4.408152 3.993069 -1.042320 8.961922 0.538989 8.004860 -8.099494 0.000002 -0.000002 0.000002 -0.377745 6.958828 -1.618136 6.794821 2.424776 -1.405155 0.927959 1.588805 -1.544882 -0.000000 -0.000002 -0.000001 0.961231 -4.688552 -1.915229 -5.200165 2.228332 1.409119 -7.915992 -1.222255 2.918658 0.000002 0.000001 0.000001 32.292902 18.899933 48.823022 -42.708678 60.948114 -55.096605 26.708273 -28.557547 -16.929968 0.000001 0.000003 0.000000 2.930503 -0.149682 26.848389 -15.586048 14.732861 -95.805008 -13.571904 2.847439 -46.704120 0.000002 0.000003 0.000008 
